<svg xmlns="http://www.w3.org/2000/svg" width="24" height="24" viewBox="0 0 24 24" fill="none" stroke="currentColor" stroke-width="2" stroke-linecap="round" stroke-linejoin="round"><path d="M2.5 7.1C2.5 7.1 2.3 5.4 3.1 4.6 4.1 3.6 5.2 3.6 5.8 3.5 8.3 3.3 12 3.3 12 3.3s3.7 0 6.2.2c.6.1 1.7.1 2.7 1.1.8.8 1 2.5 1 2.5s.2 2.1.2 4.2v1.5c0 2.1-.2 4.2-.2 4.2s-.2 1.7-1 2.5c-1 .1-2.2 1-2.9 1.1-1.4.1-6 .2-6 .2s-3.7 0-6.2-.2c-.6-.1-1.7-.1-2.7-1.1-.8-.8-1-2.5-1-2.5s-.2-2.1-.2-4.2V11.3c0-2.1.2-4.2.2-4.2z"/><path d="M9.8 14.8l5.8-3.4-5.8-3.4v6.8z"/></svg>
